<?xml version="1.0" encoding="UTF-8"?>
<svg width="200px" height="200px" viewBox="0 0 200 200" version="1.1" xmlns="http://www.w3.org/2000/svg" xmlns:xlink="http://www.w3.org/1999/xlink">
    <title>Community</title>
    <defs>
        <linearGradient x1="50%" y1="-2.48949813e-15%" x2="50%" y2="100%" id="linearGradient-1">
            <stop stop-color="#151618" offset="0%"></stop>
            <stop stop-color="#FFFFFF" offset="100%"></stop>
        </linearGradient>
        <linearGradient x1="50%" y1="-2.48949813e-15%" x2="50%" y2="100%" id="linearGradient-2">
            <stop stop-color="#FF4746" offset="0%"></stop>
            <stop stop-color="#FF1F75" offset="100%"></stop>
        </linearGradient>
        <path d="M101,32 C112.045695,32 121,40.954305 121,52 C121,63.045695 112.045695,72 101,72 C89.954305,72 81,63.045695 81,52 C81,40.954305 89.954305,32 101,32 Z" id="path-3"></path>
        <filter x="-150.0%" y="-150.0%" width="400.0%" height="400.0%" filterUnits="objectBoundingBox" id="filter-4">
            <feOffset dx="0" dy="0" in="SourceAlpha" result="shadowOffsetOuter1"></feOffset>
            <feGaussianBlur stdDeviation="20" in="shadowOffsetOuter1" result="shadowBlurOuter1"></feGaussianBlur>
            <feColorMatrix values="0 0 0 0 1   0 0 0 0 0.278431373   0 0 0 0 0.274509804  0 0 0 0.24 0" type="matrix" in="shadowBlurOuter1"></feColorMatrix>
        </filter>
        <path d="M55,116 C66.045695,116 75,124.954305 75,136 C75,147.045695 66.045695,156 55,156 C43.954305,156 35,147.045695 35,136 C35,124.954305 43.954305,116 55,116 Z" id="path-5"></path>
        <filter x="-150.0%" y="-150.0%" width="400.0%" height="400.0%" filterUnits="objectBoundingBox" id="filter-6">
            <feOffset dx="0" dy="0" in="SourceAlpha" result="shadowOffsetOuter1"></feOffset>
            <feGaussianBlur stdDeviation="20" in="shadowOffsetOuter1" result="shadowBlurOuter1"></feGaussianBlur>
            <feColorMatrix values="0 0 0 0 1   0 0 0 0 0.278431373   0 0 0 0 0.274509804  0 0 0 0.24 0" type="matrix" in="shadowBlurOuter1"></feColorMatrix>
        </filter>
        <path d="M145,116 C156.045695,116 165,124.954305 165,136 C165,147.045695 156.045695,156 145,156 C133.954305,156 125,147.045695 125,136 C125,124.954305 133.954305,116 145,116 Z" id="path-7"></path>
        <filter x="-150.0%" y="-150.0%" width="400.0%" height="400.0%" filterUnits="objectBoundingBox" id="filter-8">
            <feOffset dx="0" dy="0" in="SourceAlpha" result="shadowOffsetOuter1"></feOffset>
            <feGaussianBlur stdDeviation="20" in="shadowOffsetOuter1" result="shadowBlurOuter1"></feGaussianBlur>
            <feColorMatrix values="0 0 0 0 1   0 0 0 0 0.278431373   0 0 0 0 0.274509804  0 0 0 0.24 0" type="matrix" in="shadowBlurOuter1"></feColorMatrix>
        </filter>
    </defs>
    <g id="Community" stroke="none" stroke-width="1" fill="none" fill-rule="evenodd">
        <path d="M101,44 C66.7583455,44 39,71.7583455 39,106 C39,140.241654 66.7583455,168 101,168 C135.241654,168 163,140.241654 163,106 C163,71.7583455 135.241654,44 101,44 Z M101,60 C126.405098,60 147,80.5949015 147,106 C147,131.405098 126.405098,152 101,152 C75.5949015,152 55,131.405098 55,106 C55,80.5949015 75.5949015,60 101,60 Z" id="Rectangle" fill="url(#linearGradient-1)" opacity="0.4"></path>
        <g id="Rectangle">
            <use fill="black" fill-opacity="1" filter="url(#filter-4)" xlink:href="#path-3"></use>
            <use fill="url(#linearGradient-2)" fill-rule="evenodd" xlink:href="#path-3"></use>
        </g>
        <g id="Rectangle">
            <use fill="black" fill-opacity="1" filter="url(#filter-6)" xlink:href="#path-5"></use>
            <use fill="url(#linearGradient-2)" fill-rule="evenodd" xlink:href="#path-5"></use>
        </g>
        <g id="Rectangle">
            <use fill="black" fill-opacity="1" filter="url(#filter-8)" xlink:href="#path-7"></use>
            <use fill="url(#linearGradient-2)" fill-rule="evenodd" xlink:href="#path-7"></use>
        </g>
    </g>
</svg>