<?xml version="1.0" encoding="UTF-8"?>
<svg viewBox="0 0 24 24" version="1.1" xmlns="http://www.w3.org/2000/svg" xmlns:xlink="http://www.w3.org/1999/xlink">
    <title>community</title>
    <g id="My-Feed-Update" stroke="none" stroke-width="1" fill="none" fill-rule="evenodd">
        <g id="community" fill="#A8B3CF">
            <path d="M6.77913695,0.289242474 C9.90204574,-0.0578484948 13.0508989,-0.0925575917 16.1789966,0.185115183 L17.2208631,0.289242474 L17.5932552,0.330631438 C19.044777,0.491958627 20.106672,0.826759195 21.0685485,1.43507992 C22.0338212,2.04554849 22.7864468,2.88667575 23.2864083,3.9137391 C23.7347905,4.8348439 23.954094,5.81202533 23.9934709,7.06323196 L24,7.49074889 L24,12.7902277 C24,15.6243388 22.0177132,18.0564547 19.2736181,18.6465772 L18.9967144,18.6993962 L16.212,19.1615815 L12.3982544,23.1513108 L12.2024314,23.3305815 C10.8877452,24.3826369 9.00410353,24.1619283 7.9288142,22.8982367 C7.2201157,22.0653666 7.10751814,21.112454 7.25049457,19.844476 L7.28787095,19.546184 L7.3392278,19.2076613 L7.38266667,18.9588558 L5.60604618,18.7067181 C4.80973179,18.5929258 4.05504871,18.3444218 3.3702189,17.9742809 L3.03375575,17.7791345 L2.70971876,17.5640785 C1.8708301,16.9699988 1.19052433,16.1853711 0.721223531,15.2706562 C0.306696264,14.4627004 0.0654049482,13.5704904 0.0115591079,12.6413402 L0,12.2410092 L0,7.49074889 C0,6.02986906 0.215389231,4.93718887 0.713591698,3.9137391 C1.21355321,2.88667575 1.96617881,2.04554849 2.93145151,1.43507992 C3.79714039,0.887591268 4.7438442,0.561653942 5.98268744,0.384333843 L6.40674477,0.330631438 L6.77913695,0.289242474 Z M17,2.27758912 C14.0092025,1.94518147 10.9935582,1.9119407 7.99779139,2.17786683 L7,2.27758912 L6.62760783,2.31897809 C5.40722967,2.45461517 4.65140964,2.71422318 4.00024464,3.12604024 C3.34907963,3.53785729 2.84901847,4.09672092 2.51174857,4.78956938 C2.20820565,5.413133 2.03652364,6.10735823 2.00522267,7.13535899 L2,7.49074889 L2,12.2410092 C2,13.0104406 2.17827333,13.7290056 2.50057959,14.3572132 C2.82288584,14.9854208 3.28922502,15.5232711 3.8653567,15.9312729 C4.35918387,16.2809888 4.93367491,16.5353059 5.56726737,16.6693551 L5.88888889,16.7262423 L8.52970573,17.1036117 C8.98075413,17.168066 9.13886172,17.2326031 9.296487,17.3368892 C9.45411229,17.4411754 9.64597171,17.5868621 9.65563246,17.8520945 L9.6539755,17.8846205 L9.6539755,17.8846205 L9.63658176,17.9907358 L9.4172325,18.9787419 L9.33152282,19.4228361 C9.18382306,20.2617639 9.10892291,21.1985597 9.45182133,21.6015376 C9.80224695,22.0133615 10.3846258,22.1200999 10.8340436,21.8511164 L10.9530413,21.7683889 L14.9509961,17.5879186 L15.1236286,17.4529941 L15.2468238,17.3696635 L15.3487323,17.3164575 L15.3487323,17.3164575 L15.4563649,17.2760748 L15.5022531,17.2626862 L15.6184085,17.2364189 L18.6666667,16.7262423 C20.5100377,16.4189243 21.8816235,14.877239 21.992722,13.0324894 L22,12.7902277 L22,7.49074889 C22,6.26250287 21.8255213,5.48241785 21.4882514,4.78956938 C21.1509815,4.09672092 20.6509204,3.53785729 19.9997554,3.12604024 C19.4137069,2.75540488 18.7428878,2.50805886 17.7249288,2.36341658 L17.3723922,2.31897809 L17,2.27758912 Z M16.2666667,10.6697746 L16.3910625,10.6765043 C16.9215571,10.7342863 17.3333333,11.1570807 17.3333333,11.670066 C17.3333333,12.1764745 16.9320478,12.59499 16.411407,12.6612259 L16.2666667,12.6703574 L7.73333333,12.6703574 L7.60893747,12.6636277 C7.07844287,12.6058457 6.66666667,12.1830513 6.66666667,11.670066 C6.66666667,11.1636575 7.06795219,10.745142 7.58859299,10.6789061 L7.73333333,10.6697746 L16.2666667,10.6697746 Z M16.2666667,6.00174823 L16.3910625,6.00847792 C16.9215571,6.06625986 17.3333333,6.48905434 17.3333333,7.0020396 C17.3333333,7.50844813 16.9320478,7.92696364 16.411407,7.99319949 L16.2666667,8.00233098 L7.73333333,8.00233098 L7.60893747,7.99560128 C7.07844287,7.93781934 6.66666667,7.51502487 6.66666667,7.0020396 C6.66666667,6.49563107 7.06795219,6.07711557 7.58859299,6.01087971 L7.73333333,6.00174823 L16.2666667,6.00174823 Z" id="Shape"></path>
        </g>
    </g>
</svg>