<?xml version="1.0" encoding="UTF-8"?>
<svg viewBox="0 0 24 24" version="1.1" xmlns="http://www.w3.org/2000/svg" xmlns:xlink="http://www.w3.org/1999/xlink">
    <title>customization</title>
    <g id="My-Feed-Update" stroke="none" stroke-width="1" fill="none" fill-rule="evenodd">
        <g id="customization" fill="#A8B3CF">
            <path d="M14.1824404,1.6172889 C16.3256165,-0.522826061 19.7912803,-0.520842405 22.0494443,1.51550529 L22.271142,1.72591728 L22.4818462,1.94787454 C24.4530473,4.13313365 24.5205684,7.44268703 22.5896371,9.5969067 L22.3827528,9.81554226 L10.6078507,21.5904402 C9.09044506,23.1026696 7.072424,23.9502567 4.9150063,23.9970158 L4.53291203,23.9970158 L0.0999260362,23.8991341 L0.00213362205,19.4661481 C-0.045784211,17.2940054 0.714752369,15.2394924 2.1489402,13.6637582 L2.40899765,13.3907309 L14.1824404,1.6172889 Z M11.9064782,6.72167754 L3.82321121,14.8049445 C2.69189074,15.9401436 2.05176733,17.4453872 2.00300766,19.0717655 L2.00164715,19.4220385 L2.05723408,21.9418261 L4.57702164,21.997413 L4.92729521,21.9960507 C6.43751089,21.9507562 7.84337465,21.3954025 8.94686226,20.4090477 L9.19605549,20.1738125 L17.2773343,12.0925337 L11.9064782,6.72167754 Z M18.2051113,2.00095629 C17.3386516,1.98283908 16.4781596,2.26385506 15.7950747,2.8481288 L15.5956429,3.03251278 L13.6967636,4.93139216 L19.0676197,10.3022483 L20.9685393,8.4013287 C22.3855182,6.98232025 22.3368069,4.62186337 20.8579051,3.14110678 C20.180157,2.46429378 19.3167369,2.08700734 18.4434061,2.013476 L18.2051113,2.00095629 Z" id="Shape"></path>
        </g>
    </g>
</svg>