<?xml version="1.0" encoding="UTF-8"?>
<svg viewBox="0 0 24 24" version="1.1" xmlns="http://www.w3.org/2000/svg" xmlns:xlink="http://www.w3.org/1999/xlink">
    <title>key features</title>
    <g id="My-Feed-Update" stroke="none" stroke-width="1" fill="none" fill-rule="evenodd">
        <g id="key-features" transform="translate(0.000000, 0.666367)" fill="#A8B3CF">
            <path d="M9.29762163,1.52811244 L6.92536402,5.46963307 L2.44233653,6.50876861 C1.94076542,6.62493347 1.47525846,6.86212112 1.086463,7.19962068 L0.914383235,7.36045244 C-0.239064946,8.52115351 -0.317710215,10.3932312 0.772229689,11.6488289 L3.78803069,15.1229664 L3.39071559,19.7076999 C3.34620094,20.2206193 3.42793024,20.7366377 3.62876699,21.2106973 L3.71970094,21.4066873 C4.46206751,22.87452 6.22608253,23.5355991 7.76311208,22.8844319 L12.0000307,21.0896331 L16.2367105,22.8844319 C16.71077,23.0852687 17.2267885,23.166998 17.7397078,23.1224833 L17.9542056,23.0965642 C19.5796013,22.8441169 20.7534355,21.3707236 20.6091069,19.7076999 L20.2106974,15.1229664 L23.2275929,11.6488289 C23.5650924,11.2600335 23.8022801,10.7945265 23.9184449,10.2929554 L23.9600779,10.0809465 C24.2222611,8.45709285 23.1837155,6.88540658 21.557486,6.50876861 L17.073364,5.46963307 L14.7022009,1.52811244 C14.4367276,1.08698688 14.0672991,0.717558466 13.6261736,0.45208512 C12.1337402,-0.446074755 10.1957815,0.0356790874 9.29762163,1.52811244 Z M12.5949036,2.16570181 C12.7562959,2.2628292 12.8914568,2.39799009 12.9885842,2.55938245 L15.5460221,6.80896624 C15.7071378,7.07668521 15.9699371,7.26762009 16.2743405,7.33812051 L21.1062266,8.45719489 C21.7270756,8.60098475 22.1138085,9.22084703 21.9700186,9.84169604 C21.927518,10.0252033 21.8407394,10.195516 21.7172601,10.3377626 L18.4659575,14.0832242 C18.2611291,14.319184 18.1607487,14.6281232 18.1877647,14.9394138 L18.6165966,19.8806236 C18.6716972,20.5155196 18.2016802,21.0748724 17.5667842,21.129973 C17.379125,21.1462593 17.1903319,21.1163574 17.0168902,21.0428783 L12.4500368,19.1081171 C12.1623302,18.9862293 11.8374924,18.9862293 11.5497858,19.1081171 L6.98293235,21.0428783 C6.39613739,21.2914758 5.71891803,21.0173125 5.47032058,20.4305176 C5.39684145,20.2570758 5.36693957,20.0682828 5.38322592,19.8806236 L5.81205787,14.9394138 C5.8390738,14.6281232 5.73869339,14.319184 5.53386501,14.0832242 L2.28256243,10.3377626 C1.86480258,9.85650825 1.91627504,9.12771326 2.39752937,8.70995342 C2.53977598,8.58647417 2.71008864,8.49969554 2.89359591,8.45719489 L7.72548204,7.33812051 C8.02988541,7.26762009 8.29268472,7.07668521 8.45380042,6.80896624 L11.0112383,2.55938245 C11.3398435,2.01335346 12.0488746,1.83709664 12.5949036,2.16570181 Z" id="Star"></path>
        </g>
    </g>
</svg>