<?xml version="1.0" encoding="UTF-8"?>
<svg viewBox="-2 0 24 24" version="1.1" xmlns="http://www.w3.org/2000/svg" xmlns:xlink="http://www.w3.org/1999/xlink">
    <title>useful guides</title>
    <g id="My-Feed-Update" stroke="none" stroke-width="1" fill="none" fill-rule="evenodd">
        <g id="useful-guides" fill="#A8B3CF">
            <path d="M11.3333333,0 L20,8.66666667 L20,18.6666667 C20,21.6121853 17.6121853,24 14.6666667,24 L5.33333333,24 C2.38781467,24 0,21.6121853 0,18.6666667 L0,5.33333333 C0,2.38781467 2.38781467,0 5.33333333,0 L11.3333333,0 Z M11.3333333,2 L5.33333333,2 C3.56602213,2 2.11994844,3.37538125 2.00709024,5.11416575 L2,5.33333333 L2,18.6666667 C2,20.4339779 3.37538125,21.8800516 5.11416575,21.9929098 L5.33333333,22 L14.6666667,22 C16.4339779,22 17.8800516,20.6246188 17.9929098,18.8858343 L18,18.6666667 L18,8.66791617 L14,8.66666667 C12.5272407,8.66666667 11.3333333,7.47275933 11.3333333,6 L11.3333333,2 Z M14.3341067,17.3333333 C14.8859646,17.3333333 15.3333333,17.7807026 15.3333333,18.3325605 C15.3333333,18.8384303 14.9574193,19.2565005 14.4696959,19.3226659 L14.3341067,19.3317877 L5.66589383,19.3317877 C5.11403591,19.3317877 4.66666667,18.8844184 4.66666667,18.3325605 C4.66666667,17.8266907 5.0425811,17.4086205 5.53030463,17.3424551 L5.66589383,17.3333333 L14.3341067,17.3333333 Z M14.3341067,13.3333333 C14.8859646,13.3333333 15.3333333,13.7807026 15.3333333,14.3325605 C15.3333333,14.8384303 14.9574193,15.2565005 14.4696959,15.3226659 L14.3341067,15.3317877 L5.66589383,15.3317877 C5.11403591,15.3317877 4.66666667,14.8844184 4.66666667,14.3325605 C4.66666667,13.8266907 5.0425811,13.4086205 5.53030463,13.3424551 L5.66589383,13.3333333 L14.3341067,13.3333333 Z M9.66744,9.33333333 C10.2192979,9.33333333 10.6666667,9.78070257 10.6666667,10.3325605 C10.6666667,10.8384303 10.2907527,11.2565005 9.8030292,11.3226659 L9.66744,11.3317877 L5.66589383,11.3317877 C5.11403591,11.3317877 4.66666667,10.8844184 4.66666667,10.3325605 C4.66666667,9.82669073 5.0425811,9.40862049 5.53030463,9.3424551 L5.66589383,9.33333333 L9.66744,9.33333333 Z" id="Shape"></path>
        </g>
    </g>
</svg>