<svg width="24px" height="24px" viewBox="0 0 24 24" fill="none" xmlns="http://www.w3.org/2000/svg">
<path d="M12.5518 8C11.9995 8 11.5518 8.44772 11.5518 9C11.5518 9.55228 11.9995 10 12.5518 10H16.5518C17.104 10 17.5518 9.55228 17.5518 9C17.5518 8.44772 17.104 8 16.5518 8H12.5518Z" fill="black" fill-opacity="0.5"/>
<path d="M12.5518 17C11.9995 17 11.5518 17.4477 11.5518 18C11.5518 18.5523 11.9995 19 12.5518 19H16.5518C17.104 19 17.5518 18.5523 17.5518 18C17.5518 17.4477 17.104 17 16.5518 17H12.5518Z" fill="black" fill-opacity="0.5"/>
<path d="M12.5518 5C11.9995 5 11.5518 5.44772 11.5518 6C11.5518 6.55228 11.9995 7 12.5518 7H20.5518C21.104 7 21.5518 6.55228 21.5518 6C21.5518 5.44772 21.104 5 20.5518 5H12.5518Z" fill="black" fill-opacity="0.8"/>
<path d="M12.5518 14C11.9995 14 11.5518 14.4477 11.5518 15C11.5518 15.5523 11.9995 16 12.5518 16H20.5518C21.104 16 21.5518 15.5523 21.5518 15C21.5518 14.4477 21.104 14 20.5518 14H12.5518Z" fill="black" fill-opacity="0.8"/>
<path d="M3.44824 4.00208C2.89596 4.00208 2.44824 4.44979 2.44824 5.00208V10.0021C2.44824 10.5544 2.89596 11.0021 3.44824 11.0021H8.44824C9.00053 11.0021 9.44824 10.5544 9.44824 10.0021V5.00208C9.44824 4.44979 9.00053 4.00208 8.44824 4.00208H3.44824Z" fill="black"/>
<path d="M3.44824 12.9979C2.89596 12.9979 2.44824 13.4456 2.44824 13.9979V18.9979C2.44824 19.5502 2.89596 19.9979 3.44824 19.9979H8.44824C9.00053 19.9979 9.44824 19.5502 9.44824 18.9979V13.9979C9.44824 13.4456 9.00053 12.9979 8.44824 12.9979H3.44824Z" fill="black"/>
</svg>
