<svg width="32" height="32" viewBox="0 0 32 32" fill="none" xmlns="http://www.w3.org/2000/svg">
  <path d="M16 4C9.373 4 4 9.373 4 16C4 22.627 9.373 28 16 28C22.627 28 28 22.627 28 16C28 9.373 22.627 4 16 4Z" stroke="currentColor" stroke-width="2" stroke-linecap="round" stroke-linejoin="round"/>
  <path d="M16 12V16L19 19" stroke="currentColor" stroke-width="2" stroke-linecap="round" stroke-linejoin="round"/>
  <path d="M12 7L10 4M20 7L22 4M16 4V2" stroke="currentColor" stroke-width="2" stroke-linecap="round" stroke-linejoin="round"/>
  <path d="M21 22H11C10.4477 22 10 21.5523 10 21V20C10 19.4477 10.4477 19 11 19H21C21.5523 19 22 19.4477 22 20V21C22 21.5523 21.5523 22 21 22Z" fill="currentColor"/>
</svg>
