<?xml version="1.0" encoding="UTF-8"?>
<svg viewBox="0 0 25 25" version="1.1" xmlns="http://www.w3.org/2000/svg" xmlns:xlink="http://www.w3.org/1999/xlink">
    <title>content creator</title>
    <g id="My-Feed-Update" stroke="none" stroke-width="1" fill="none" fill-rule="evenodd">
        <g id="content-creator" transform="translate(0.666667, 0.666624)" fill="#A8B3CF">
            <path d="M10.9564658,1.38350789 L10.753344,1.60050659 C10.3627433,2.04644401 10.0667246,2.56227377 9.8783194,3.11653543 L9.82266667,3.29737575 L9.74470719,3.2992448 C9.28156441,3.32792178 8.82263018,3.51734352 8.45850036,3.88147335 L7.42380918,4.91616452 L7.22068732,5.13316322 C6.83008662,5.57910064 6.53406799,6.0949304 6.34566277,6.64919206 L6.29066667,6.82937575 L6.21205055,6.83190144 C5.74890778,6.86057842 5.28997355,7.05000016 4.92584372,7.41412998 L3.27642935,9.06354436 L3.08624391,9.26581216 C2.10926572,10.3712036 1.73264629,11.8923732 2.09330377,13.3350031 L2.88666667,16.5173757 L0.95160501,18.453682 C-0.31720167,19.7224886 -0.31720167,21.7796307 0.95160501,23.0484374 L1.12936241,23.213592 C2.40579581,24.3146226 4.3352268,24.2595711 5.54636045,23.0484374 L7.48266667,21.1107091 L10.6650393,21.9067386 C12.1978336,22.2899372 13.8192918,21.8408193 14.9364981,20.7236131 L16.5859124,19.0741987 L16.7142939,18.933389 C16.994871,18.59529 17.1430351,18.19328 17.1681375,17.7880448 L17.1693333,17.7080424 L17.3508504,17.6543796 C17.997489,17.4345736 18.5918175,17.0682937 19.0838779,16.5762332 L20.1185691,15.5415421 L20.2469506,15.4007324 C20.5275276,15.0626334 20.6756917,14.6606234 20.7007941,14.2553881 L20.7026667,14.1360424 L20.7163378,14.133118 C21.4835517,13.8935709 22.1892595,13.4708516 22.7680615,12.8920496 C23.8127347,11.8473764 24.2326943,10.3311891 23.8743743,8.89790938 L22.7744762,4.49831682 C22.3715875,2.88676227 21.1132801,1.62845486 19.5017256,1.22556622 L15.102133,0.125668084 C13.6688533,-0.232651849 12.152666,0.187307727 11.1079928,1.23198087 L10.9564658,1.38350789 Z M14.6170618,2.06595308 L19.0166543,3.16585123 C19.9116385,3.38959725 20.6104452,4.08840396 20.8341912,4.98338807 L21.9340893,9.38298063 C22.1220218,10.1347103 21.9017604,10.9299236 21.353848,11.477836 C20.7883675,12.0433165 20.0214113,12.3610002 19.2217011,12.3610002 L13.7978373,11.575326 L18.7043555,14.1273285 L17.6696643,15.1620197 C17.2012049,15.6304791 16.5658376,15.8936568 15.903336,15.8936568 L10.2651807,15.1079826 L15.1716989,17.6599851 L13.5222845,19.3093995 C12.901839,19.929845 12.0013548,20.1792647 11.1501106,19.9664536 L6.86995578,18.8964149 L4.13214689,21.6342238 C3.64438879,22.1219819 2.85357667,22.1219819 2.36581857,21.6342238 C1.87806048,21.1464657 1.87806048,20.3556536 2.36581857,19.8678955 L5.1027443,17.1309698 L4.03358877,12.8499319 C3.82077771,11.9986876 4.07019739,11.0982034 4.69064291,10.4777579 L6.34005728,8.82834354 L8.89117664,13.7339785 L8.1063856,8.0967064 C8.1063856,7.43420477 8.36956335,6.79883748 8.83802275,6.33037808 L9.87271392,5.29568691 L12.4238333,10.2013219 L11.6390422,4.56404977 C11.6390422,3.90154813 11.90222,3.26618085 12.3706794,2.79772145 L12.5222064,2.64619444 C13.0701188,2.09828198 13.8653321,1.87802066 14.6170618,2.06595308 Z" id="Path"></path>
        </g>
    </g>
</svg>