<svg width="24" height="24" viewBox="0 0 24 24" fill="none" xmlns="http://www.w3.org/2000/svg">
<path d="M18.8113 10.8102C18.1612 10.1587 17.1069 10.1584 16.4568 10.8099L9.64539 17.6501L11.2147 14.5044L8.7205 12.0036L12.0033 8.71254L14.4975 11.2133L16.8523 8.8536L13.181 5.17325C12.5309 4.52179 11.4766 4.52206 10.8265 5.17352L5.18915 10.824C4.53905 11.4755 4.53905 12.5317 5.18915 13.1832L9.64539 17.6501L10.8228 18.8299C11.4729 19.4814 12.5272 19.4817 13.1773 18.8302L19.9887 11.99L18.8113 10.8102Z" fill="#A8B3CF"/>
<path fill-rule="evenodd" clip-rule="evenodd" d="M15.5147 22.5442C13.5736 24.4853 10.4264 24.4853 8.48528 22.5442L1.45584 15.5147C-0.485281 13.5736 -0.485281 10.4264 1.45584 8.48528L8.48528 1.45584C10.4264 -0.485282 13.5736 -0.485281 15.5147 1.45584L22.5442 8.48528C24.4853 10.4264 24.4853 13.5736 22.5442 15.5147L15.5147 22.5442ZM9.89949 21.1299L2.87006 14.1005C1.70998 12.9404 1.70998 11.0596 2.87006 9.89949L9.8995 2.87006C11.0596 1.70998 12.9404 1.70998 14.1005 2.87006L21.1299 9.8995C22.29 11.0596 22.29 12.9404 21.1299 14.1005L14.1005 21.1299C12.9404 22.29 11.0596 22.29 9.89949 21.1299Z" fill="#A8B3CF"/>
</svg>
