<?xml version="1.0" encoding="UTF-8"?>
<svg viewBox="0 0 28 15" version="1.1" xmlns="http://www.w3.org/2000/svg" xmlns:xlink="http://www.w3.org/1999/xlink">
    <title>getting started</title>
    <g stroke="none" stroke-width="1" fill="none" fill-rule="evenodd">
        <g fill="#A8B3CF">
            <g id="Secound" opacity="0.56" transform="translate(17.658700, 1.566667)">
                <path d="M5.24055399,5.88642848 L2.29682839,2.94270289 L3.76792416,0 L8.55090298,4.78297882 C9.1603214,5.39239724 9.1603214,6.38045973 8.55090298,6.98987815 L2.66396315,12.876818 C2.05454472,13.4862364 1.06648224,13.4862364 0.457063816,12.876818 C-0.152354605,12.2673996 -0.152354605,11.2793371 0.457063816,10.6699187 L5.24055399,5.88642848 Z" id="Combined-Shape"></path>
            </g>
            <path d="M18.1168606,0.456935998 C18.726279,-0.152482424 19.7145972,-0.152226747 20.3240156,0.457191675 L21.427721,1.56089702 L8.55090298,14.437715 C7.94148456,15.0471334 6.9531664,15.0468777 6.34374798,14.4374593 L5.24004264,13.333754 L18.1168606,0.456935998 Z M12.5980782,4.50411126 L10.3906676,6.71152194 L7.44694197,3.76779634 L3.76741281,7.4473255 L6.71113841,10.3910511 L5.24004264,13.333754 L0.457063816,8.55077516 C-0.152354605,7.94135674 -0.152354605,6.95329426 0.457063816,6.34387584 L6.34374798,0.457191675 C6.9531664,-0.152226747 7.94148456,-0.152482424 8.55090298,0.456935998 L12.5980782,4.50411126 Z" id="Main"></path>
        </g>
    </g>
</svg>