<?xml version="1.0" encoding="UTF-8"?>
<svg viewBox="-2 0 24 24" version="1.1" xmlns="http://www.w3.org/2000/svg" xmlns:xlink="http://www.w3.org/1999/xlink">
    <title>integration</title>
    <g id="My-Feed-Update" stroke="none" stroke-width="1" fill="none" fill-rule="evenodd">
        <g id="integration" fill="#A8B3CF">
            <path d="M9.58732377,0.947578293 L0.9367553,9.7236404 C0.340407486,10.3202951 0,11.1426282 0,12 L0.00687541385,12.212587 C0.116314469,13.8991821 1.51858979,15.2337204 3.23294653,15.2337204 L6.696,15.2333333 L5.08775487,19.6615566 C4.65879308,20.8419416 4.95192382,22.1640759 5.83971264,23.0524217 C7.10235827,24.3158594 9.15003115,24.3158594 10.4126768,23.0524217 L19.0632447,14.2763596 C19.6595925,13.6797049 20,12.8573718 20,12 L19.9931246,11.787413 C19.8836855,10.1008179 18.4814102,8.76627962 16.7670535,8.76627962 L13.3026667,8.76533333 L14.9122457,4.33844338 C15.3412075,3.15805842 15.0480767,1.83592406 14.1602879,0.947578293 C12.8976423,-0.315859431 10.8499694,-0.315859431 9.58732377,0.947578293 Z M12.745631,2.36134833 C13.0843565,2.70028633 13.1962265,3.20486391 13.0325212,3.65533576 L10.4483446,10.7662796 L16.7670535,10.7662796 C17.4479912,10.7662796 18,11.318635 18,12 C18,12.327203 17.8701009,12.6410046 17.6388785,12.872372 L8.99801983,21.6386517 C8.51652411,22.1204494 7.73586531,22.1204494 7.25436959,21.6386517 C6.91564409,21.2997137 6.80377406,20.7951361 6.96747931,20.3446642 L9.55165594,13.2337204 L3.23294653,13.2337204 C2.55200876,13.2337204 2,12.681365 2,12 C2,11.672797 2.12989906,11.3589954 2.36112146,11.127628 L11.0019807,2.36134833 C11.4834764,1.87955056 12.2641352,1.87955056 12.745631,2.36134833 Z" id="Path"></path>
        </g>
    </g>
</svg>