<svg width="18" height="18" viewBox="0 0 18 18" fill="none" xmlns="http://www.w3.org/2000/svg" role="img" aria-labelledby="organizations-title">
<title id="organizations-title">Organizations and team management icon for daily.dev</title>
<path fill-rule="evenodd" clip-rule="evenodd" d="M3 6C3 4.34315 4.34315 3 6 3C7.65685 3 9 4.34315 9 6C9 7.65685 7.65685 9 6 9C4.34315 9 3 7.65685 3 6ZM6 4.5C5.17157 4.5 4.5 5.17157 4.5 6C4.5 6.82843 5.17157 7.5 6 7.5C6.82843 7.5 7.5 6.82843 7.5 6C7.5 5.17157 6.82843 4.5 6 4.5Z" fill="#A8B3CF"/>
<path fill-rule="evenodd" clip-rule="evenodd" d="M12 6C12 4.34315 13.3431 3 15 3C16.6569 3 18 4.34315 18 6C18 7.65685 16.6569 9 15 9C13.3431 9 12 7.65685 12 6ZM15 4.5C14.1716 4.5 13.5 5.17157 13.5 6C13.5 6.82843 14.1716 7.5 15 7.5C15.8284 7.5 16.5 6.82843 16.5 6C16.5 5.17157 15.8284 4.5 15 4.5Z" fill="#A8B3CF"/>
<path fill-rule="evenodd" clip-rule="evenodd" d="M0 12C0 10.3431 1.34315 9 3 9C4.65685 9 6 10.3431 6 12C6 13.6569 4.65685 15 3 15C1.34315 15 0 13.6569 0 12ZM3 10.5C2.17157 10.5 1.5 11.1716 1.5 12C1.5 12.8284 2.17157 13.5 3 13.5C3.82843 13.5 4.5 12.8284 4.5 12C4.5 11.1716 3.82843 10.5 3 10.5Z" fill="#A8B3CF"/>
<path fill-rule="evenodd" clip-rule="evenodd" d="M12 12C12 10.3431 13.3431 9 15 9C16.6569 9 18 10.3431 18 12C18 13.6569 16.6569 15 15 15C13.3431 15 12 13.6569 12 12ZM15 10.5C14.1716 10.5 13.5 11.1716 13.5 12C13.5 12.8284 14.1716 13.5 15 13.5C15.8284 13.5 16.5 12.8284 16.5 12C16.5 11.1716 15.8284 10.5 15 10.5Z" fill="#A8B3CF"/>
<path d="M9 9C10.1046 9 11 9.89543 11 11V13C11 14.1046 10.1046 15 9 15C7.89543 15 7 14.1046 7 13V11C7 9.89543 7.89543 9 9 9Z" fill="#A8B3CF"/>
</svg>