<svg width="18" height="18" viewBox="0 0 18 18" fill="none" xmlns="http://www.w3.org/2000/svg">
<path fill-rule="evenodd" clip-rule="evenodd" d="M3.75152 9C6.11781 9.9884 8.0116 11.8822 9 14.2485C9.9885 11.8822 11.8823 9.9884 14.2486 9C11.8823 8.0115 9.9885 6.11774 9 3.75146C8.0116 6.11774 6.11781 8.0115 3.75152 9ZM9 -1.93119e-05L8.25 -0.000549316C8.2468 4.55476 4.55482 8.2468 -0.000488281 8.25L4.17233e-05 9L-0.000488281 9.75C4.55482 9.7532 8.2468 13.4452 8.25 18.0005L9 18L9.75 18.0005C9.7533 13.4452 13.4453 9.7532 18.0006 9.75L18 9L18.0006 8.25C13.4453 8.2468 9.7533 4.55476 9.75 -0.000549316L9 -1.93119e-05Z" fill="#A8B3CF"/>
</svg>
