<?xml version="1.0" encoding="UTF-8"?>
<svg viewBox="0 0 24 24" version="1.1" xmlns="http://www.w3.org/2000/svg" xmlns:xlink="http://www.w3.org/1999/xlink">
    <title>setting up feed</title>
    <g id="My-Feed-Update" stroke="none" stroke-width="1" fill="none" fill-rule="evenodd">
        <g id="setting-up-feed" fill="#A8B3CF">
            <path d="M12,0 C13.6489645,0 15.064883,0.997788257 15.67693,2.4222277 L15.7668054,2.6506015 L15.8133333,2.792 L15.866624,2.76491199 C17.206139,2.09449664 18.8436045,2.22332155 20.0686131,3.15138672 L20.2932952,3.33476503 L20.4852814,3.51471863 C21.6691866,4.69862385 21.9558163,6.44002461 21.34567,7.89337512 L21.2356755,8.13278809 L21.2053333,8.18533333 L21.3490351,8.2331945 C22.7422207,8.73220477 23.777968,9.98218158 23.968466,11.4953138 L23.9932097,11.7649696 L24,12 C24,13.6489645 23.0022117,15.064883 21.5777723,15.67693 L21.3493985,15.7668054 L21.2066667,15.8133333 L21.235088,15.866624 C21.9055034,17.206139 21.7766785,18.8436045 20.8486133,20.0686131 L20.665235,20.2932952 L20.4852814,20.4852814 C19.3013762,21.6691866 17.5599754,21.9558163 16.1066249,21.34567 L15.8672119,21.2356755 L15.8133333,21.2053333 L15.7668055,21.3490351 C15.2677952,22.7422207 14.0178184,23.777968 12.5046862,23.968466 L12.2350304,23.9932097 L12,24 C10.3510355,24 8.935117,23.0022117 8.32307,21.5770902 L8.2331946,21.3486029 L8.18533333,21.2066667 L8.13337605,21.235088 C6.79386103,21.9055034 5.15639547,21.7766785 3.93138694,20.8486133 L3.70670475,20.665235 L3.51471863,20.4852814 C2.3308134,19.3013762 2.04418372,17.5599754 2.65433005,16.1066249 L2.7643245,15.8672119 L2.79333333,15.8133333 L2.65096488,15.7668055 C1.2577793,15.2677952 0.222031996,14.0178184 0.0315340397,12.5046862 L0.00679025788,12.2350304 L0,12 C0,10.3510355 0.997788257,8.935117 2.42290984,8.32307 L2.65139711,8.2331946 L2.792,8.18533333 L2.76491199,8.13337605 C2.09449664,6.79386103 2.22332155,5.15639547 3.15138672,3.93138694 L3.33476503,3.70670475 L3.51471863,3.51471863 C4.69862385,2.3308134 6.44002461,2.04418372 7.89337512,2.65433005 L8.13278809,2.7643245 L8.18533333,2.79333333 L8.2331945,2.65096488 C8.73220477,1.2577793 9.98218158,0.222031996 11.4953138,0.0315340397 L11.7649696,0.00679025788 L12,0 Z M12,2 C10.9604052,2 10.1060684,2.79318411 10.0091554,3.80738665 L10,4 L10.0007299,5.63830564 C9.74969061,5.71712063 9.50504867,5.8103848 9.26777874,5.91712353 L8.91752469,6.08721571 L7.75735931,4.92893219 C6.97631073,4.1478836 5.70998077,4.1478836 4.92893219,4.92893219 C4.19669914,5.66116524 4.15093458,6.81991512 4.79163849,7.60546277 L4.92893219,7.75735931 L6.08721571,8.91752469 C5.96724608,9.14717895 5.8602637,9.38469253 5.76724318,9.62909082 L5.63830564,10.0007299 L4,10 C2.8954305,10 2,10.8954305 2,12 C2,13.0395948 2.79318411,13.8939316 3.80738665,13.9908446 L4,14 L5.63872768,14.0006138 C5.71750042,14.2513317 5.81068624,14.4956657 5.917314,14.7326446 L6.08721571,15.0824753 L4.92893219,16.2426407 C4.1478836,17.0236893 4.1478836,18.2900192 4.92893219,19.0710678 C5.31945648,19.4615921 5.83130112,19.6568542 6.34314575,19.6568542 L6.53485053,19.6477013 C6.91731229,19.6110897 7.29124371,19.4646431 7.60546277,19.2083615 L7.75735931,19.0710678 L8.91752469,17.9127843 C9.14717895,18.0327539 9.38469253,18.1397363 9.62909082,18.2327568 L10.0007299,18.3616944 L10,20 C10,21.0395948 10.7931841,21.8939316 11.8073867,21.9908446 L12,22 L12.1926133,21.9908446 C13.1434282,21.8999886 13.8999886,21.1434282 13.9908446,20.1926133 L14,20 L14.0006138,18.3612723 C14.2513317,18.2824996 14.4956657,18.1893138 14.7326446,18.082686 L15.0824753,17.9127843 L16.2426407,19.0710678 C16.633165,19.4615921 17.1450096,19.6568542 17.6568542,19.6568542 L17.848559,19.6477013 C18.2947644,19.6049877 18.7293591,19.4127766 19.0710678,19.0710678 C19.8033009,18.3388348 19.8490654,17.1800849 19.2083615,16.3945372 L19.0710678,16.2426407 L17.9127843,15.0824753 C18.0326112,14.8530942 18.1394818,14.6158725 18.2324248,14.3717813 L18.3612723,14.0006138 L20,14 L20.1926133,13.9908446 C21.2068159,13.8939316 22,13.0395948 22,12 C22,10.9604052 21.2068159,10.1060684 20.1926133,10.0091554 L20,10 L18.3616944,10.0007299 C18.2828794,9.74969061 18.1896152,9.50504867 18.0828765,9.26777874 L17.9127843,8.91752469 L19.0710678,7.75735931 C19.8521164,6.97631073 19.8521164,5.70998077 19.0710678,4.92893219 C18.3388348,4.19669914 17.1800849,4.15093458 16.3945372,4.79163849 L16.2426407,4.92893219 L15.0824753,6.08721571 C14.8530942,5.96738879 14.6158725,5.86051824 14.3717813,5.7675752 L14.0006138,5.63872768 L14,4 C14,2.8954305 13.1045695,2 12,2 Z M12,8 C14.209139,8 16,9.790861 16,12 C16,14.209139 14.209139,16 12,16 C9.790861,16 8,14.209139 8,12 C8,9.790861 9.790861,8 12,8 Z M12,10 C10.8954305,10 10,10.8954305 10,12 C10,13.1045695 10.8954305,14 12,14 C13.1045695,14 14,13.1045695 14,12 C14,10.8954305 13.1045695,10 12,10 Z" id="Shape"></path>
        </g>
    </g>
</svg>