<?xml version="1.0" encoding="UTF-8"?>
<svg viewBox="-2 0 24 24" version="1.1" xmlns="http://www.w3.org/2000/svg" xmlns:xlink="http://www.w3.org/1999/xlink">
    <title>your profile</title>
    <g id="My-Feed-Update" stroke="none" stroke-width="1" fill="none" fill-rule="evenodd">
        <g id="your-profile" fill="#A8B3CF">
            <path d="M10,0 C13.4978034,0 16.3333333,2.83552992 16.3333333,6.33333333 C16.3333333,8.42047869 15.3139322,10.3353935 13.6048297,11.5362384 L13.3710944,11.6910073 L13.77463,11.8229878 L13.77463,11.8229878 L14.177232,11.9698114 L14.3177808,12.0299778 L14.6582633,12.1918568 C17.7033955,13.7121691 19.7198129,16.6130981 19.9748936,19.9225535 L19.9954505,20.278657 L20.0014978,20.6328931 L20.0011272,21.1022055 L19.9951766,21.2548 L19.9845098,21.3927608 L19.9665406,21.546986 C19.7699406,22.8067084 18.7710181,23.7835932 17.5160977,23.961054 L17.2920949,23.9839669 L17.0094869,24.0019441 L14.3628353,23.4162593 C13.7200476,23.274015 13.2850062,22.6877647 13.3193055,22.0447896 L13.3356712,21.89558 L13.7320996,19.5130122 L13.7534679,19.3601532 C13.8228426,18.6657989 13.3384326,18.0305972 12.644506,17.9154783 L12.5357702,17.902003 L12.5357702,17.902003 L12.4262951,17.8975011 L7.6397478,17.8964554 L7.48545268,17.9003918 C6.8426716,17.9421124 6.32683753,18.4410861 6.25068963,19.0276942 L6.24099377,19.175958 L6.24375438,19.3039755 L6.25986698,19.449907 L6.66556477,21.8961823 C6.77322696,22.5453635 6.39186627,23.1674288 5.78285031,23.3756214 L5.63838592,23.416143 L2.99322532,24.0019441 L2.6168985,23.975894 L2.44539299,23.9566639 C1.19150513,23.7609745 0.213238268,22.7684116 0.0281787358,21.4494658 L0.00386050766,21.2134183 L0,21.0281214 L0.00160376395,20.5491837 L0.00980145694,20.1953813 C0.164608065,16.6527194 2.37416424,13.5174541 5.82776915,11.9675197 C6.09321097,11.8658578 6.35929949,11.7738732 6.62596066,11.6916139 L6.60289543,11.6791478 C4.78984615,10.5253629 3.66666667,8.52413662 3.66666667,6.33333333 C3.66666667,2.83552992 6.50219658,0 10,0 Z M10,19.3333333 C10.7363797,19.3333333 11.3333333,19.930287 11.3333333,20.6666667 C11.3333333,21.4030463 10.7363797,22 10,22 C9.26362033,22 8.66666667,21.4030463 8.66666667,20.6666667 C8.66666667,19.930287 9.26362033,19.3333333 10,19.3333333 Z M10.0020436,13.1733331 C8.8490573,13.1730108 7.69607096,13.3936412 6.54308463,13.8352252 C3.98019495,14.9880556 2.26521559,17.3147007 2.02909078,19.963363 L2.00789469,20.2826936 L2.00112781,20.5928136 L1.99999337,21.0332726 L2.00324024,21.1636119 L2.0230711,21.2993504 C2.09304462,21.607917 2.3244119,21.8550484 2.62231982,21.9496466 L2.75379202,21.9805844 L2.84246115,21.9866678 L4.58912781,21.6000011 L4.28681625,19.7771238 L4.26180029,19.5959208 L4.24676581,19.4136872 L4.24174677,19.2308345 L4.248837,19.0116669 C4.35229035,17.4177811 5.57601506,16.129255 7.14053038,15.9255693 L7.35591252,15.9045914 L7.5750801,15.8975011 L12.4262951,15.8975011 L12.6088906,15.9025061 C12.7304609,15.9091755 12.8516204,15.9225032 12.9718222,15.9424441 C14.6426598,16.2196274 15.8157244,17.6946505 15.7581134,19.3430772 L15.7435595,19.5589885 L15.7146855,19.7763615 L15.4117945,21.6000011 L17.1651278,21.9880011 L17.3033551,21.9685089 C17.6170597,21.8992345 17.8648333,21.6679546 17.9595119,21.3700576 L17.9904611,21.2385869 L18.0011278,21.1006261 L18.0014984,20.6313138 L17.9957772,20.314803 L17.9760587,19.9938086 C17.7693882,17.5442777 16.2937303,15.3673107 14.060448,14.1363768 L13.7648958,13.9812406 L13.4610027,13.8371666 L13.0286328,13.6816871 C12.0197697,13.3430684 11.0109067,13.1736174 10.0020436,13.1733331 Z M10,2 C7.60676608,2 5.66666667,3.94009942 5.66666667,6.33333333 C5.66666667,7.87171889 6.46831534,9.22286937 7.67666382,9.99183592 C8.34917887,10.4194639 9.14572078,10.6666667 10,10.6666667 C10.6407094,10.6666667 11.2489416,10.5276151 11.7961648,10.2780437 L12.0645602,10.1441801 L12.3225449,9.99106045 L12.5443871,9.84028968 C13.6287593,9.05324417 14.3333333,7.77556979 14.3333333,6.33333333 C14.3333333,3.94009942 12.3932339,2 10,2 Z" id="Shape"></path>
        </g>
    </g>
</svg>